<mxfile host="3519e192-5a23-450a-986b-a63f52b3d870" modified="2020-08-19T00:24:41.165Z" agent="5.0 (Macintosh; Intel Mac OS X 10_15_6) AppleWebKit/537.36 (KHTML, like Gecko) Code/1.47.3 Chrome/78.0.3904.130 Electron/7.3.2 Safari/537.36" etag="zMh5kqIwV73oRpV6jmxw" version="13.1.3" pages="2">
    <diagram id="lZTjPE_rxs8lMhApN0eJ" name="第 2 页">
        <mxGraphModel dx="693" dy="519" grid="1" gridSize="10" guides="1" tooltips="1" connect="1" arrows="0" fold="1" page="1" pageScale="1" pageWidth="827" pageHeight="1169" background="none" math="0" shadow="0">
            <root>
                <mxCell id="YofQEZrLhi15AD0ChysG-0"/>
                <mxCell id="YofQEZrLhi15AD0ChysG-1" parent="YofQEZrLhi15AD0ChysG-0"/>
                <mxCell id="MGAKMBN6zAn7k81jx370-0" value="" style="group" parent="YofQEZrLhi15AD0ChysG-1" vertex="1" connectable="0">
                    <mxGeometry x="150" y="30" width="610" height="760" as="geometry"/>
                </mxCell>
                <mxCell id="jgIxanUAPcHFhZBtU7i4-2" value="输入页面地址&lt;br&gt;或者打开页面" style="rounded=1;whiteSpace=wrap;html=1;fillColor=none;" parent="MGAKMBN6zAn7k81jx370-0" vertex="1">
                    <mxGeometry width="120" height="60" as="geometry"/>
                </mxCell>
                <mxCell id="jgIxanUAPcHFhZBtU7i4-3" value="打开一个无头浏览器&lt;br&gt;puppeteer" style="rounded=1;whiteSpace=wrap;html=1;labelBackgroundColor=none;labelBorderColor=none;fillColor=#ffe6cc;strokeColor=#d79b00;" parent="MGAKMBN6zAn7k81jx370-0" vertex="1">
                    <mxGeometry y="140" width="120" height="60" as="geometry"/>
                </mxCell>
                <mxCell id="jgIxanUAPcHFhZBtU7i4-4" value="" style="edgeStyle=orthogonalEdgeStyle;rounded=0;orthogonalLoop=1;jettySize=auto;html=1;" parent="MGAKMBN6zAn7k81jx370-0" source="jgIxanUAPcHFhZBtU7i4-2" target="jgIxanUAPcHFhZBtU7i4-3" edge="1">
                    <mxGeometry relative="1" as="geometry"/>
                </mxCell>
                <mxCell id="jgIxanUAPcHFhZBtU7i4-5" value="渲染页面" style="rounded=1;whiteSpace=wrap;html=1;fillColor=none;" parent="MGAKMBN6zAn7k81jx370-0" vertex="1">
                    <mxGeometry y="280" width="120" height="60" as="geometry"/>
                </mxCell>
                <mxCell id="jgIxanUAPcHFhZBtU7i4-6" value="" style="edgeStyle=orthogonalEdgeStyle;rounded=0;orthogonalLoop=1;jettySize=auto;html=1;" parent="MGAKMBN6zAn7k81jx370-0" source="jgIxanUAPcHFhZBtU7i4-3" target="jgIxanUAPcHFhZBtU7i4-5" edge="1">
                    <mxGeometry relative="1" as="geometry"/>
                </mxCell>
                <mxCell id="jgIxanUAPcHFhZBtU7i4-7" value="生成骨架屏" style="rounded=1;whiteSpace=wrap;html=1;fillColor=none;" parent="MGAKMBN6zAn7k81jx370-0" vertex="1">
                    <mxGeometry y="420" width="120" height="60" as="geometry"/>
                </mxCell>
                <mxCell id="jgIxanUAPcHFhZBtU7i4-8" value="" style="edgeStyle=orthogonalEdgeStyle;rounded=0;orthogonalLoop=1;jettySize=auto;html=1;" parent="MGAKMBN6zAn7k81jx370-0" source="jgIxanUAPcHFhZBtU7i4-5" target="jgIxanUAPcHFhZBtU7i4-7" edge="1">
                    <mxGeometry relative="1" as="geometry"/>
                </mxCell>
                <mxCell id="jgIxanUAPcHFhZBtU7i4-9" value="通过webpack把骨架屏加入到模板中" style="rounded=1;whiteSpace=wrap;html=1;fillColor=#ffe6cc;strokeColor=#d79b00;" parent="MGAKMBN6zAn7k81jx370-0" vertex="1">
                    <mxGeometry y="560" width="120" height="60" as="geometry"/>
                </mxCell>
                <mxCell id="jgIxanUAPcHFhZBtU7i4-10" value="" style="edgeStyle=orthogonalEdgeStyle;rounded=0;orthogonalLoop=1;jettySize=auto;html=1;" parent="MGAKMBN6zAn7k81jx370-0" source="jgIxanUAPcHFhZBtU7i4-7" target="jgIxanUAPcHFhZBtU7i4-9" edge="1">
                    <mxGeometry relative="1" as="geometry"/>
                </mxCell>
                <mxCell id="jgIxanUAPcHFhZBtU7i4-11" value="监听load事件，之后移除骨架节点" style="rounded=1;whiteSpace=wrap;html=1;fillColor=none;" parent="MGAKMBN6zAn7k81jx370-0" vertex="1">
                    <mxGeometry y="700" width="120" height="60" as="geometry"/>
                </mxCell>
                <mxCell id="jgIxanUAPcHFhZBtU7i4-12" value="" style="edgeStyle=orthogonalEdgeStyle;rounded=0;orthogonalLoop=1;jettySize=auto;html=1;" parent="MGAKMBN6zAn7k81jx370-0" source="jgIxanUAPcHFhZBtU7i4-9" target="jgIxanUAPcHFhZBtU7i4-11" edge="1">
                    <mxGeometry relative="1" as="geometry"/>
                </mxCell>
                <mxCell id="jgIxanUAPcHFhZBtU7i4-19" value="" style="edgeStyle=orthogonalEdgeStyle;rounded=0;orthogonalLoop=1;jettySize=auto;html=1;" parent="MGAKMBN6zAn7k81jx370-0" source="jgIxanUAPcHFhZBtU7i4-17" target="jgIxanUAPcHFhZBtU7i4-5" edge="1">
                    <mxGeometry relative="1" as="geometry"/>
                </mxCell>
                <mxCell id="jgIxanUAPcHFhZBtU7i4-17" value="注入DOM操作" style="rounded=1;whiteSpace=wrap;html=1;fillColor=#ffe6cc;strokeColor=#d79b00;" parent="MGAKMBN6zAn7k81jx370-0" vertex="1">
                    <mxGeometry x="180" y="280" width="120" height="60" as="geometry"/>
                </mxCell>
                <mxCell id="jgIxanUAPcHFhZBtU7i4-20" value="" style="edgeStyle=orthogonalEdgeStyle;rounded=0;orthogonalLoop=1;jettySize=auto;html=1;" parent="MGAKMBN6zAn7k81jx370-0" source="jgIxanUAPcHFhZBtU7i4-18" target="jgIxanUAPcHFhZBtU7i4-3" edge="1">
                    <mxGeometry relative="1" as="geometry"/>
                </mxCell>
                <mxCell id="jgIxanUAPcHFhZBtU7i4-18" value="注入cookie，避免某些页面登录前后显示不一致" style="rounded=1;whiteSpace=wrap;html=1;fillColor=none;" parent="MGAKMBN6zAn7k81jx370-0" vertex="1">
                    <mxGeometry x="180" y="140" width="120" height="60" as="geometry"/>
                </mxCell>
                <mxCell id="jgIxanUAPcHFhZBtU7i4-40" style="edgeStyle=orthogonalEdgeStyle;rounded=0;orthogonalLoop=1;jettySize=auto;html=1;exitX=0;exitY=0.5;exitDx=0;exitDy=0;entryX=0.5;entryY=1;entryDx=0;entryDy=0;" parent="MGAKMBN6zAn7k81jx370-0" source="jgIxanUAPcHFhZBtU7i4-21" target="jgIxanUAPcHFhZBtU7i4-17" edge="1">
                    <mxGeometry relative="1" as="geometry"/>
                </mxCell>
                <mxCell id="jgIxanUAPcHFhZBtU7i4-21" value="&lt;div&gt;&lt;span&gt;编辑DOM生成骨架屏&lt;/span&gt;&lt;/div&gt;" style="rounded=0;whiteSpace=wrap;html=1;align=center;fontStyle=1;labelPosition=center;verticalLabelPosition=top;verticalAlign=bottom;fillColor=none;" parent="MGAKMBN6zAn7k81jx370-0" vertex="1">
                    <mxGeometry x="350" y="280" width="260" height="360" as="geometry"/>
                </mxCell>
                <mxCell id="jgIxanUAPcHFhZBtU7i4-22" value="预处理" style="ellipse;whiteSpace=wrap;html=1;aspect=fixed;fillColor=none;" parent="MGAKMBN6zAn7k81jx370-0" vertex="1">
                    <mxGeometry x="370" y="300" width="60" height="60" as="geometry"/>
                </mxCell>
                <mxCell id="jgIxanUAPcHFhZBtU7i4-23" value="button" style="ellipse;whiteSpace=wrap;html=1;aspect=fixed;fillColor=none;" parent="MGAKMBN6zAn7k81jx370-0" vertex="1">
                    <mxGeometry x="450" y="300" width="60" height="60" as="geometry"/>
                </mxCell>
                <mxCell id="jgIxanUAPcHFhZBtU7i4-24" value="空节点" style="ellipse;whiteSpace=wrap;html=1;aspect=fixed;fillColor=none;" parent="MGAKMBN6zAn7k81jx370-0" vertex="1">
                    <mxGeometry x="530" y="300" width="60" height="60" as="geometry"/>
                </mxCell>
                <mxCell id="jgIxanUAPcHFhZBtU7i4-25" value="文本节点" style="ellipse;whiteSpace=wrap;html=1;aspect=fixed;fillColor=none;" parent="MGAKMBN6zAn7k81jx370-0" vertex="1">
                    <mxGeometry x="370" y="390" width="60" height="60" as="geometry"/>
                </mxCell>
                <mxCell id="jgIxanUAPcHFhZBtU7i4-26" value="伪元素" style="ellipse;whiteSpace=wrap;html=1;aspect=fixed;fillColor=none;" parent="MGAKMBN6zAn7k81jx370-0" vertex="1">
                    <mxGeometry x="450" y="390" width="60" height="60" as="geometry"/>
                </mxCell>
                <mxCell id="jgIxanUAPcHFhZBtU7i4-27" value="list重复" style="ellipse;whiteSpace=wrap;html=1;aspect=fixed;fillColor=none;" parent="MGAKMBN6zAn7k81jx370-0" vertex="1">
                    <mxGeometry x="530" y="390" width="60" height="60" as="geometry"/>
                </mxCell>
                <mxCell id="jgIxanUAPcHFhZBtU7i4-28" value="input" style="ellipse;whiteSpace=wrap;html=1;aspect=fixed;fillColor=none;" parent="MGAKMBN6zAn7k81jx370-0" vertex="1">
                    <mxGeometry x="370" y="480" width="60" height="60" as="geometry"/>
                </mxCell>
                <mxCell id="jgIxanUAPcHFhZBtU7i4-29" value="image" style="ellipse;whiteSpace=wrap;html=1;aspect=fixed;fillColor=none;" parent="MGAKMBN6zAn7k81jx370-0" vertex="1">
                    <mxGeometry x="450" y="480" width="60" height="60" as="geometry"/>
                </mxCell>
                <mxCell id="jgIxanUAPcHFhZBtU7i4-30" value="SVG" style="ellipse;whiteSpace=wrap;html=1;aspect=fixed;fillColor=none;" parent="MGAKMBN6zAn7k81jx370-0" vertex="1">
                    <mxGeometry x="530" y="480" width="60" height="60" as="geometry"/>
                </mxCell>
                <mxCell id="jgIxanUAPcHFhZBtU7i4-31" value="style" style="ellipse;whiteSpace=wrap;html=1;aspect=fixed;fillColor=none;" parent="MGAKMBN6zAn7k81jx370-0" vertex="1">
                    <mxGeometry x="370" y="560" width="60" height="60" as="geometry"/>
                </mxCell>
                <mxCell id="jgIxanUAPcHFhZBtU7i4-32" value="script" style="ellipse;whiteSpace=wrap;html=1;aspect=fixed;fillColor=none;" parent="MGAKMBN6zAn7k81jx370-0" vertex="1">
                    <mxGeometry x="450" y="560" width="60" height="60" as="geometry"/>
                </mxCell>
                <mxCell id="jgIxanUAPcHFhZBtU7i4-33" value="a" style="ellipse;whiteSpace=wrap;html=1;aspect=fixed;fillColor=none;" parent="MGAKMBN6zAn7k81jx370-0" vertex="1">
                    <mxGeometry x="530" y="560" width="60" height="60" as="geometry"/>
                </mxCell>
            </root>
        </mxGraphModel>
    </diagram>
    <diagram id="6hGFLwfOUW9BJ-s0fimq" name="Page-1">
        <mxGraphModel dx="924" dy="692" grid="1" gridSize="10" guides="1" tooltips="1" connect="1" arrows="1" fold="1" page="1" pageScale="1" pageWidth="827" pageHeight="1169" background="#ffffff" math="0" shadow="0">
            <root>
                <mxCell id="0"/>
                <mxCell id="1" parent="0"/>
                <mxCell id="5" value="" style="edgeStyle=orthogonalEdgeStyle;rounded=0;orthogonalLoop=1;jettySize=auto;html=1;" parent="1" source="3" target="4" edge="1">
                    <mxGeometry relative="1" as="geometry"/>
                </mxCell>
                <mxCell id="3" value="打开一个browser和page" style="rounded=0;whiteSpace=wrap;html=1;fillColor=#f8cecc;strokeColor=#b85450;gradientColor=#ea6b66;" parent="1" vertex="1">
                    <mxGeometry x="100" y="60" width="120" height="60" as="geometry"/>
                </mxCell>
                <mxCell id="7" value="" style="edgeStyle=orthogonalEdgeStyle;rounded=0;orthogonalLoop=1;jettySize=auto;html=1;" parent="1" source="4" target="6" edge="1">
                    <mxGeometry relative="1" as="geometry"/>
                </mxCell>
                <mxCell id="4" value="注入动态脚本&lt;br&gt;获取全局变量window.awesomeSkeleton" style="rounded=0;whiteSpace=wrap;html=1;gradientColor=#ea6b66;fillColor=#f8cecc;strokeColor=#b85450;" parent="1" vertex="1">
                    <mxGeometry x="100" y="200" width="120" height="60" as="geometry"/>
                </mxCell>
                <mxCell id="9" value="" style="edgeStyle=orthogonalEdgeStyle;rounded=0;orthogonalLoop=1;jettySize=auto;html=1;" parent="1" source="6" target="8" edge="1">
                    <mxGeometry relative="1" as="geometry"/>
                </mxCell>
                <mxCell id="6" value="等待2000ms&lt;br&gt;确保执行完毕" style="rounded=0;whiteSpace=wrap;html=1;fillColor=#bac8d3;strokeColor=#23445d;" parent="1" vertex="1">
                    <mxGeometry x="100" y="340" width="120" height="60" as="geometry"/>
                </mxCell>
                <mxCell id="11" value="" style="edgeStyle=orthogonalEdgeStyle;rounded=0;orthogonalLoop=1;jettySize=auto;html=1;" parent="1" source="8" target="10" edge="1">
                    <mxGeometry relative="1" as="geometry"/>
                </mxCell>
                <mxCell id="8" value="执行脚本上的代码&lt;br&gt;将页面转换为骨架屏" style="rounded=0;whiteSpace=wrap;html=1;gradientColor=#ea6b66;fillColor=#f8cecc;strokeColor=#b85450;" parent="1" vertex="1">
                    <mxGeometry x="100" y="480" width="120" height="60" as="geometry"/>
                </mxCell>
                <mxCell id="13" value="" style="edgeStyle=orthogonalEdgeStyle;rounded=0;orthogonalLoop=1;jettySize=auto;html=1;" parent="1" source="10" target="12" edge="1">
                    <mxGeometry relative="1" as="geometry"/>
                </mxCell>
                <mxCell id="10" value="截图生成base64并存储到TXT中&lt;br&gt;同时生成png图片也存储" style="rounded=0;whiteSpace=wrap;html=1;gradientColor=#ea6b66;fillColor=#f8cecc;strokeColor=#b85450;" parent="1" vertex="1">
                    <mxGeometry x="100" y="620" width="120" height="60" as="geometry"/>
                </mxCell>
                <mxCell id="12" value="生成可注入的HTML和CSS脚本，存入html文件中" style="rounded=0;whiteSpace=wrap;html=1;gradientColor=#ea6b66;fillColor=#f8cecc;strokeColor=#b85450;" parent="1" vertex="1">
                    <mxGeometry x="100" y="770" width="120" height="50" as="geometry"/>
                </mxCell>
                <mxCell id="14" value="标红的5个都是重点步骤" style="text;html=1;align=center;verticalAlign=middle;whiteSpace=wrap;rounded=0;fillColor=#1ba1e2;strokeColor=#006EAF;fontColor=#ffffff;" parent="1" vertex="1">
                    <mxGeometry x="85" y="10" width="150" height="20" as="geometry"/>
                </mxCell>
                <mxCell id="uqRNoB-qXwKnWtPRRlZf-16" value="" style="edgeStyle=orthogonalEdgeStyle;rounded=0;orthogonalLoop=1;jettySize=auto;html=1;fontColor=#333333;fillColor=none;strokeColor=#333333;labelBackgroundColor=none;" parent="1" source="uqRNoB-qXwKnWtPRRlZf-14" target="uqRNoB-qXwKnWtPRRlZf-15" edge="1">
                    <mxGeometry relative="1" as="geometry"/>
                </mxCell>
                <mxCell id="uqRNoB-qXwKnWtPRRlZf-14" value="执行脚本" style="rounded=1;whiteSpace=wrap;html=1;fillColor=none;strokeColor=#333333;fontColor=#333333;labelBackgroundColor=none;" parent="1" vertex="1">
                    <mxGeometry x="736" y="120" width="120" height="60" as="geometry"/>
                </mxCell>
                <mxCell id="uqRNoB-qXwKnWtPRRlZf-18" value="" style="edgeStyle=orthogonalEdgeStyle;rounded=0;orthogonalLoop=1;jettySize=auto;html=1;fontColor=#333333;fillColor=none;strokeColor=#333333;labelBackgroundColor=none;" parent="1" source="uqRNoB-qXwKnWtPRRlZf-15" target="uqRNoB-qXwKnWtPRRlZf-17" edge="1">
                    <mxGeometry relative="1" as="geometry"/>
                </mxCell>
                <mxCell id="uqRNoB-qXwKnWtPRRlZf-15" value="处理节点&lt;br&gt;只处理第一屏可以显示的节点:&lt;br&gt;&lt;div style=&quot;color: rgb(93 , 93 , 95) ; font-family: &amp;#34;menlo&amp;#34; , &amp;#34;monaco&amp;#34; , &amp;#34;courier new&amp;#34; , monospace ; line-height: 21px ; font-size: 9px&quot;&gt;&lt;span style=&quot;background-color: rgb(255 , 255 , 255)&quot;&gt;&lt;span style=&quot;color: rgb(0 , 190 , 196)&quot;&gt;getBoundingClientRect&lt;/span&gt;()&lt;/span&gt;&lt;/div&gt;" style="rounded=1;whiteSpace=wrap;html=1;fillColor=none;strokeColor=#333333;fontColor=#333333;labelBackgroundColor=none;" parent="1" vertex="1">
                    <mxGeometry x="724" y="244" width="144" height="86" as="geometry"/>
                </mxCell>
                <mxCell id="uqRNoB-qXwKnWtPRRlZf-20" value="" style="edgeStyle=orthogonalEdgeStyle;rounded=0;orthogonalLoop=1;jettySize=auto;html=1;fontColor=#333333;fillColor=none;strokeColor=#333333;labelBackgroundColor=none;" parent="1" source="uqRNoB-qXwKnWtPRRlZf-17" target="uqRNoB-qXwKnWtPRRlZf-23" edge="1">
                    <mxGeometry relative="1" as="geometry">
                        <mxPoint x="670" y="400" as="targetPoint"/>
                    </mxGeometry>
                </mxCell>
                <mxCell id="uqRNoB-qXwKnWtPRRlZf-25" value="" style="edgeStyle=orthogonalEdgeStyle;rounded=0;orthogonalLoop=1;jettySize=auto;html=1;fontColor=#333333;fillColor=none;strokeColor=#333333;labelBackgroundColor=none;" parent="1" source="uqRNoB-qXwKnWtPRRlZf-17" target="uqRNoB-qXwKnWtPRRlZf-24" edge="1">
                    <mxGeometry relative="1" as="geometry"/>
                </mxCell>
                <mxCell id="uqRNoB-qXwKnWtPRRlZf-17" value="预处理" style="rounded=1;whiteSpace=wrap;html=1;fillColor=none;strokeColor=#333333;fontColor=#333333;labelBackgroundColor=none;" parent="1" vertex="1">
                    <mxGeometry x="736" y="370" width="120" height="60" as="geometry"/>
                </mxCell>
                <mxCell id="uqRNoB-qXwKnWtPRRlZf-27" value="" style="edgeStyle=orthogonalEdgeStyle;rounded=0;orthogonalLoop=1;jettySize=auto;html=1;fontColor=#333333;fillColor=none;strokeColor=#333333;labelBackgroundColor=none;" parent="1" source="uqRNoB-qXwKnWtPRRlZf-24" target="uqRNoB-qXwKnWtPRRlZf-26" edge="1">
                    <mxGeometry relative="1" as="geometry"/>
                </mxCell>
                <mxCell id="uqRNoB-qXwKnWtPRRlZf-35" value="" style="edgeStyle=orthogonalEdgeStyle;rounded=0;orthogonalLoop=1;jettySize=auto;html=1;fontColor=#333333;fillColor=none;strokeColor=#333333;labelBackgroundColor=none;" parent="1" source="uqRNoB-qXwKnWtPRRlZf-24" target="uqRNoB-qXwKnWtPRRlZf-34" edge="1">
                    <mxGeometry relative="1" as="geometry"/>
                </mxCell>
                <mxCell id="uqRNoB-qXwKnWtPRRlZf-38" value="" style="edgeStyle=orthogonalEdgeStyle;rounded=0;orthogonalLoop=1;jettySize=auto;html=1;fontColor=#333333;fillColor=none;strokeColor=#333333;labelBackgroundColor=none;" parent="1" source="uqRNoB-qXwKnWtPRRlZf-24" target="uqRNoB-qXwKnWtPRRlZf-37" edge="1">
                    <mxGeometry relative="1" as="geometry"/>
                </mxCell>
                <mxCell id="uqRNoB-qXwKnWtPRRlZf-24" value="处理各种节点" style="rounded=1;whiteSpace=wrap;html=1;fillColor=none;strokeColor=#333333;fontColor=#333333;labelBackgroundColor=none;" parent="1" vertex="1">
                    <mxGeometry x="736" y="470" width="120" height="60" as="geometry"/>
                </mxCell>
                <mxCell id="uqRNoB-qXwKnWtPRRlZf-40" value="" style="edgeStyle=orthogonalEdgeStyle;rounded=0;orthogonalLoop=1;jettySize=auto;html=1;fontColor=#333333;fillColor=none;strokeColor=#333333;labelBackgroundColor=none;" parent="1" source="uqRNoB-qXwKnWtPRRlZf-37" target="uqRNoB-qXwKnWtPRRlZf-39" edge="1">
                    <mxGeometry relative="1" as="geometry"/>
                </mxCell>
                <mxCell id="uqRNoB-qXwKnWtPRRlZf-37" value="list节点&lt;br&gt;包括ul\ol\dl" style="rounded=1;whiteSpace=wrap;html=1;fillColor=none;strokeColor=#333333;fontColor=#333333;labelBackgroundColor=none;" parent="1" vertex="1">
                    <mxGeometry x="936" y="470" width="120" height="60" as="geometry"/>
                </mxCell>
                <mxCell id="uqRNoB-qXwKnWtPRRlZf-44" value="" style="edgeStyle=orthogonalEdgeStyle;rounded=0;orthogonalLoop=1;jettySize=auto;html=1;fontColor=#333333;fillColor=none;strokeColor=#333333;labelBackgroundColor=none;" parent="1" source="uqRNoB-qXwKnWtPRRlZf-39" target="uqRNoB-qXwKnWtPRRlZf-43" edge="1">
                    <mxGeometry relative="1" as="geometry"/>
                </mxCell>
                <mxCell id="uqRNoB-qXwKnWtPRRlZf-39" value="获取到列表的子节点的长度，拿到第一个子元素" style="rounded=1;whiteSpace=wrap;html=1;fillColor=none;strokeColor=#333333;fontColor=#333333;labelBackgroundColor=none;" parent="1" vertex="1">
                    <mxGeometry x="936" y="560" width="120" height="60" as="geometry"/>
                </mxCell>
                <mxCell id="uqRNoB-qXwKnWtPRRlZf-46" value="" style="edgeStyle=orthogonalEdgeStyle;rounded=0;orthogonalLoop=1;jettySize=auto;html=1;fontColor=#333333;fillColor=none;strokeColor=#333333;labelBackgroundColor=none;" parent="1" source="uqRNoB-qXwKnWtPRRlZf-43" target="uqRNoB-qXwKnWtPRRlZf-45" edge="1">
                    <mxGeometry relative="1" as="geometry"/>
                </mxCell>
                <mxCell id="uqRNoB-qXwKnWtPRRlZf-43" value="删除掉其余元素" style="rounded=1;whiteSpace=wrap;html=1;fillColor=none;strokeColor=#333333;fontColor=#333333;labelBackgroundColor=none;" parent="1" vertex="1">
                    <mxGeometry x="936" y="650" width="120" height="60" as="geometry"/>
                </mxCell>
                <mxCell id="uqRNoB-qXwKnWtPRRlZf-45" value="用第一个子元素重复渲染填充列表" style="rounded=1;whiteSpace=wrap;html=1;fillColor=none;strokeColor=#333333;fontColor=#333333;labelBackgroundColor=none;" parent="1" vertex="1">
                    <mxGeometry x="936" y="740" width="120" height="60" as="geometry"/>
                </mxCell>
                <mxCell id="q_C0wTDVVipGc3KbLoxP-30" value="" style="edgeStyle=none;rounded=0;orthogonalLoop=1;jettySize=auto;html=1;" edge="1" parent="1" source="uqRNoB-qXwKnWtPRRlZf-34" target="q_C0wTDVVipGc3KbLoxP-29">
                    <mxGeometry relative="1" as="geometry"/>
                </mxCell>
                <mxCell id="uqRNoB-qXwKnWtPRRlZf-34" value="文本节点" style="rounded=1;whiteSpace=wrap;html=1;fillColor=none;strokeColor=#333333;fontColor=#333333;labelBackgroundColor=none;" parent="1" vertex="1">
                    <mxGeometry x="736" y="560" width="120" height="60" as="geometry"/>
                </mxCell>
                <mxCell id="q_C0wTDVVipGc3KbLoxP-32" value="" style="edgeStyle=none;rounded=0;orthogonalLoop=1;jettySize=auto;html=1;" edge="1" parent="1" source="q_C0wTDVVipGc3KbLoxP-29" target="q_C0wTDVVipGc3KbLoxP-31">
                    <mxGeometry relative="1" as="geometry"/>
                </mxCell>
                <mxCell id="q_C0wTDVVipGc3KbLoxP-29" value="计算出文本的行数：&lt;br&gt;(节点高度-内边距 / 行高)" style="rounded=1;whiteSpace=wrap;html=1;fillColor=none;strokeColor=#333333;fontColor=#333333;labelBackgroundColor=none;" vertex="1" parent="1">
                    <mxGeometry x="736" y="658" width="120" height="60" as="geometry"/>
                </mxCell>
                <mxCell id="q_C0wTDVVipGc3KbLoxP-34" value="" style="edgeStyle=none;rounded=0;orthogonalLoop=1;jettySize=auto;html=1;" edge="1" parent="1" source="q_C0wTDVVipGc3KbLoxP-31" target="q_C0wTDVVipGc3KbLoxP-33">
                    <mxGeometry relative="1" as="geometry"/>
                </mxCell>
                <mxCell id="q_C0wTDVVipGc3KbLoxP-31" value="单行文本需要计算出文本内容的宽度" style="rounded=1;whiteSpace=wrap;html=1;fillColor=none;strokeColor=#333333;fontColor=#333333;labelBackgroundColor=none;" vertex="1" parent="1">
                    <mxGeometry x="736" y="752" width="120" height="60" as="geometry"/>
                </mxCell>
                <mxCell id="q_C0wTDVVipGc3KbLoxP-33" value="多行文本利用line-greadient实现条纹背景" style="rounded=1;whiteSpace=wrap;html=1;fillColor=none;strokeColor=#333333;fontColor=#333333;labelBackgroundColor=none;" vertex="1" parent="1">
                    <mxGeometry x="736" y="844" width="120" height="60" as="geometry"/>
                </mxCell>
                <mxCell id="uqRNoB-qXwKnWtPRRlZf-29" value="" style="edgeStyle=orthogonalEdgeStyle;rounded=0;orthogonalLoop=1;jettySize=auto;html=1;fontColor=#333333;fillColor=none;strokeColor=#333333;labelBackgroundColor=none;" parent="1" source="uqRNoB-qXwKnWtPRRlZf-26" target="uqRNoB-qXwKnWtPRRlZf-28" edge="1">
                    <mxGeometry relative="1" as="geometry"/>
                </mxCell>
                <mxCell id="uqRNoB-qXwKnWtPRRlZf-26" value="其他节点" style="rounded=1;whiteSpace=wrap;html=1;fillColor=none;strokeColor=#333333;fontColor=#333333;labelBackgroundColor=none;" parent="1" vertex="1">
                    <mxGeometry x="540" y="470" width="120" height="60" as="geometry"/>
                </mxCell>
                <mxCell id="q_C0wTDVVipGc3KbLoxP-23" style="rounded=0;orthogonalLoop=1;jettySize=auto;html=1;exitX=0.5;exitY=1;exitDx=0;exitDy=0;" edge="1" parent="1" source="uqRNoB-qXwKnWtPRRlZf-28" target="uqRNoB-qXwKnWtPRRlZf-30">
                    <mxGeometry relative="1" as="geometry"/>
                </mxCell>
                <mxCell id="uqRNoB-qXwKnWtPRRlZf-28" value="script标签移除掉" style="rounded=1;whiteSpace=wrap;html=1;fillColor=none;strokeColor=#333333;fontColor=#333333;labelBackgroundColor=none;" parent="1" vertex="1">
                    <mxGeometry x="540" y="560" width="120" height="30" as="geometry"/>
                </mxCell>
                <mxCell id="uqRNoB-qXwKnWtPRRlZf-19" value="置空所有大小小于指定阈值的节点" style="rounded=1;whiteSpace=wrap;html=1;fillColor=none;strokeColor=#333333;fontColor=#333333;labelBackgroundColor=none;" parent="1" vertex="1">
                    <mxGeometry x="540" y="120" width="120" height="60" as="geometry"/>
                </mxCell>
                <mxCell id="q_C0wTDVVipGc3KbLoxP-16" value="" style="edgeStyle=orthogonalEdgeStyle;rounded=0;orthogonalLoop=1;jettySize=auto;html=1;" edge="1" parent="1" source="uqRNoB-qXwKnWtPRRlZf-21" target="uqRNoB-qXwKnWtPRRlZf-19">
                    <mxGeometry relative="1" as="geometry"/>
                </mxCell>
                <mxCell id="uqRNoB-qXwKnWtPRRlZf-21" value="所有节点背景图设置为none，并将背景色设置为灰色" style="rounded=1;whiteSpace=wrap;html=1;fillColor=none;strokeColor=#333333;fontColor=#333333;labelBackgroundColor=none;" parent="1" vertex="1">
                    <mxGeometry x="540" y="200" width="120" height="60" as="geometry"/>
                </mxCell>
                <mxCell id="q_C0wTDVVipGc3KbLoxP-15" value="" style="edgeStyle=orthogonalEdgeStyle;rounded=0;orthogonalLoop=1;jettySize=auto;html=1;" edge="1" parent="1" source="uqRNoB-qXwKnWtPRRlZf-22" target="uqRNoB-qXwKnWtPRRlZf-21">
                    <mxGeometry relative="1" as="geometry">
                        <Array as="points">
                            <mxPoint x="600" y="260"/>
                            <mxPoint x="600" y="260"/>
                        </Array>
                    </mxGeometry>
                </mxCell>
                <mxCell id="uqRNoB-qXwKnWtPRRlZf-22" value="所有节点的阴影，边框设置为灰色" style="rounded=1;whiteSpace=wrap;html=1;fillColor=none;strokeColor=#333333;fontColor=#333333;labelBackgroundColor=none;" parent="1" vertex="1">
                    <mxGeometry x="542" y="284" width="120" height="60" as="geometry"/>
                </mxCell>
                <mxCell id="q_C0wTDVVipGc3KbLoxP-14" value="" style="edgeStyle=orthogonalEdgeStyle;rounded=0;orthogonalLoop=1;jettySize=auto;html=1;" edge="1" parent="1" source="uqRNoB-qXwKnWtPRRlZf-23" target="uqRNoB-qXwKnWtPRRlZf-22">
                    <mxGeometry relative="1" as="geometry"/>
                </mxCell>
                <mxCell id="uqRNoB-qXwKnWtPRRlZf-23" value="如果某个节点设置了特定的属性，则取其值为它的背景色" style="rounded=1;whiteSpace=wrap;html=1;fillColor=none;strokeColor=#333333;fontColor=#333333;labelBackgroundColor=none;" parent="1" vertex="1">
                    <mxGeometry x="542" y="370" width="120" height="60" as="geometry"/>
                </mxCell>
                <mxCell id="q_C0wTDVVipGc3KbLoxP-24" style="rounded=0;orthogonalLoop=1;jettySize=auto;html=1;exitX=0.5;exitY=1;exitDx=0;exitDy=0;" edge="1" parent="1" source="uqRNoB-qXwKnWtPRRlZf-30" target="uqRNoB-qXwKnWtPRRlZf-33">
                    <mxGeometry relative="1" as="geometry"/>
                </mxCell>
                <mxCell id="uqRNoB-qXwKnWtPRRlZf-30" value="button设置宽高，移除文案" style="rounded=1;whiteSpace=wrap;html=1;fillColor=none;strokeColor=#333333;fontColor=#333333;labelBackgroundColor=none;" parent="1" vertex="1">
                    <mxGeometry x="541" y="613" width="120" height="35" as="geometry"/>
                </mxCell>
                <mxCell id="uqRNoB-qXwKnWtPRRlZf-31" value="img设置宽高，并用1px的base64填充" style="rounded=1;whiteSpace=wrap;html=1;fillColor=none;strokeColor=#333333;fontColor=#333333;labelBackgroundColor=none;" parent="1" vertex="1">
                    <mxGeometry x="542" y="793" width="120" height="30" as="geometry"/>
                </mxCell>
                <mxCell id="q_C0wTDVVipGc3KbLoxP-26" style="edgeStyle=none;rounded=0;orthogonalLoop=1;jettySize=auto;html=1;exitX=0.5;exitY=1;exitDx=0;exitDy=0;entryX=0.5;entryY=0;entryDx=0;entryDy=0;" edge="1" parent="1" source="uqRNoB-qXwKnWtPRRlZf-32" target="uqRNoB-qXwKnWtPRRlZf-31">
                    <mxGeometry relative="1" as="geometry"/>
                </mxCell>
                <mxCell id="uqRNoB-qXwKnWtPRRlZf-32" value="input移除placeholder" style="rounded=1;whiteSpace=wrap;html=1;fillColor=none;strokeColor=#333333;fontColor=#333333;labelBackgroundColor=none;" parent="1" vertex="1">
                    <mxGeometry x="542" y="733" width="120" height="30" as="geometry"/>
                </mxCell>
                <mxCell id="q_C0wTDVVipGc3KbLoxP-25" style="rounded=0;orthogonalLoop=1;jettySize=auto;html=1;exitX=0.5;exitY=1;exitDx=0;exitDy=0;" edge="1" parent="1" source="uqRNoB-qXwKnWtPRRlZf-33" target="uqRNoB-qXwKnWtPRRlZf-32">
                    <mxGeometry relative="1" as="geometry"/>
                </mxCell>
                <mxCell id="uqRNoB-qXwKnWtPRRlZf-33" value="svg设置宽高，并移除内容，用背景色填充" style="rounded=1;whiteSpace=wrap;html=1;fillColor=none;strokeColor=#333333;fontColor=#333333;labelBackgroundColor=none;" parent="1" vertex="1">
                    <mxGeometry x="542" y="673" width="120" height="30" as="geometry"/>
                </mxCell>
            </root>
        </mxGraphModel>
    </diagram>
</mxfile>